<svg width="1600" height="420" viewBox="0 0 1600 420" fill="none" xmlns="http://www.w3.org/2000/svg">
  <rect width="1600" height="420" fill="#FFF7FB"/>
  <rect width="1600" height="420" fill="url(#paint0_radial)" opacity="0.9"/>
  <path d="M0 0H1600V420H0V0Z" fill="url(#paint1_linear)" opacity="0.72"/>
  <path d="M-70 360C120 220 240 250 375 316C502 378 632 392 768 308C901 226 990 143 1149 196C1274 238 1377 211 1676 34" stroke="#F9A8D4" stroke-width="18" stroke-linecap="round" opacity="0.55"/>
  <path d="M1280 -30C1365 92 1453 136 1600 138V420H1258C1324 310 1338 192 1280 -30Z" fill="#FBCFE8" opacity="0.75"/>
  <path d="M0 420V196C104 194 184 131 254 34C309 199 231 345 0 420Z" fill="#F9A8D4" opacity="0.44"/>
  <circle cx="792" cy="134" r="64" fill="white" stroke="#FBCFE8" stroke-width="10"/>
  <circle cx="792" cy="134" r="42" fill="#FFF1F2"/>
  <path d="M767 143C779 116 805 116 817 143" stroke="#18181B" stroke-width="7" stroke-linecap="round"/>
  <path d="M752 174H832" stroke="#DB2777" stroke-width="7" stroke-linecap="round"/>
  <circle cx="768" cy="112" r="8" fill="#EC4899"/>
  <circle cx="816" cy="112" r="8" fill="#EC4899"/>
  <text x="800" y="225" text-anchor="middle" fill="#111827" font-family="Arial, Helvetica, sans-serif" font-size="58" font-weight="800">AdornArte Shop</text>
  <text x="800" y="280" text-anchor="middle" fill="#DB2777" font-family="Arial, Helvetica, sans-serif" font-size="46" font-style="italic">Resalta tu belleza</text>
  <text x="800" y="335" text-anchor="middle" fill="#52525B" font-family="Arial, Helvetica, sans-serif" font-size="25" font-weight="600">Maquillaje, cuidado personal, combos y entregas nacionales</text>
  <path d="M124 92C164 69 207 70 235 93" stroke="#111827" stroke-width="4" stroke-linecap="round" opacity="0.35"/>
  <path d="M140 122C184 98 225 102 252 130" stroke="#111827" stroke-width="4" stroke-linecap="round" opacity="0.35"/>
  <path d="M1376 300C1416 277 1459 278 1487 301" stroke="#111827" stroke-width="4" stroke-linecap="round" opacity="0.28"/>
  <path d="M1392 330C1436 306 1477 310 1504 338" stroke="#111827" stroke-width="4" stroke-linecap="round" opacity="0.28"/>
  <defs>
    <radialGradient id="paint0_radial" cx="0" cy="0" r="1" gradientUnits="userSpaceOnUse" gradientTransform="translate(1194 92) rotate(150.3) scale(596 402)">
      <stop stop-color="#EDE9FE"/>
      <stop offset="1" stop-color="#FFF7FB" stop-opacity="0"/>
    </radialGradient>
    <linearGradient id="paint1_linear" x1="0" y1="0" x2="1600" y2="420" gradientUnits="userSpaceOnUse">
      <stop stop-color="#FCE7F3"/>
      <stop offset="0.48" stop-color="#FFF7FB"/>
      <stop offset="1" stop-color="#F3E8FF"/>
    </linearGradient>
  </defs>
</svg>
