<svg width="1600" height="420" viewBox="0 0 1600 420" fill="none" xmlns="http://www.w3.org/2000/svg">
  <rect width="1600" height="420" rx="34" fill="#FFF7FB"/>
  <rect width="1600" height="420" rx="34" fill="url(#heroGlow)" opacity="0.95"/>
  <path d="M-40 318C145 168 311 167 492 284C667 397 820 319 953 209C1089 96 1239 98 1374 201C1460 267 1530 285 1642 237" stroke="#F472B6" stroke-width="34" stroke-linecap="round" opacity="0.18"/>
  <path d="M-8 420C117 366 210 252 242 119C272 -5 349 -50 463 -30L520 420H-8Z" fill="#F9A8D4" opacity="0.42"/>
  <path d="M1180 -24C1305 34 1396 142 1431 270C1458 367 1519 416 1617 429V-24H1180Z" fill="#DDD6FE" opacity="0.48"/>
  <path d="M1273 77C1331 97 1370 137 1390 195" stroke="#111827" stroke-width="5" stroke-linecap="round" opacity="0.18"/>
  <path d="M1305 75C1345 93 1372 121 1388 162" stroke="#111827" stroke-width="5" stroke-linecap="round" opacity="0.18"/>
  <path d="M180 284C218 230 270 202 335 200" stroke="#111827" stroke-width="5" stroke-linecap="round" opacity="0.16"/>
  <path d="M210 305C244 267 285 247 337 244" stroke="#111827" stroke-width="5" stroke-linecap="round" opacity="0.16"/>

  <g filter="url(#softShadow)">
    <circle cx="401" cy="116" r="72" fill="white"/>
    <circle cx="401" cy="116" r="62" fill="#FFF1F2" stroke="#FBCFE8" stroke-width="8"/>
    <path d="M363 119C379 84 423 84 439 119" stroke="#18181B" stroke-width="8" stroke-linecap="round"/>
    <path d="M356 146C382 166 423 166 449 146" stroke="#DB2777" stroke-width="8" stroke-linecap="round"/>
    <circle cx="378" cy="91" r="8" fill="#EC4899"/>
    <circle cx="424" cy="91" r="8" fill="#EC4899"/>
    <path d="M401 59L417 82H385L401 59Z" fill="#111827"/>
  </g>

  <text x="515" y="112" fill="#DB2777" font-family="Arial, Helvetica, sans-serif" font-size="24" font-weight="800" letter-spacing="7">ADORNARTE SHOP</text>
  <text x="515" y="181" fill="#111827" font-family="Arial, Helvetica, sans-serif" font-size="68" font-weight="900">Belleza lista para ti</text>
  <text x="515" y="238" fill="#DB2777" font-family="Arial, Helvetica, sans-serif" font-size="46" font-style="italic">maquillaje, combos y ofertas</text>
  <text x="515" y="292" fill="#52525B" font-family="Arial, Helvetica, sans-serif" font-size="27" font-weight="600">Compra facil, paga seguro y recibe en cualquier zona del pais.</text>

  <g filter="url(#softShadow)">
    <rect x="1134" y="270" width="252" height="70" rx="35" fill="#DB2777"/>
    <text x="1260" y="314" text-anchor="middle" fill="white" font-family="Arial, Helvetica, sans-serif" font-size="24" font-weight="800">Ver productos</text>
  </g>

  <circle cx="1128" cy="107" r="22" fill="#FBCFE8" opacity="0.9"/>
  <circle cx="1190" cy="150" r="13" fill="#F9A8D4" opacity="0.8"/>
  <circle cx="1084" cy="177" r="10" fill="#EC4899" opacity="0.65"/>

  <defs>
    <radialGradient id="heroGlow" cx="0" cy="0" r="1" gradientUnits="userSpaceOnUse" gradientTransform="translate(1192 102) rotate(157.545) scale(792 462)">
      <stop stop-color="#EDE9FE"/>
      <stop offset="0.44" stop-color="#FFF7FB"/>
      <stop offset="1" stop-color="#FCE7F3"/>
    </radialGradient>
    <filter id="softShadow" x="300" y="24" width="1120" height="344" filterUnits="userSpaceOnUse" color-interpolation-filters="sRGB">
      <feDropShadow dx="0" dy="14" stdDeviation="16" flood-color="#DB2777" flood-opacity="0.12"/>
    </filter>
  </defs>
</svg>
